<?xml version="1.0" encoding="utf-8"?>
<!-- Generator: Adobe Illustrator 22.1.0, SVG Export Plug-In . SVG Version: 6.00 Build 0)  -->
<svg version="1.1" id="Layer_1" xmlns="http://www.w3.org/2000/svg" xmlns:xlink="http://www.w3.org/1999/xlink" x="0px" y="0px"
	 viewBox="0 0 320 220" style="enable-background:new 0 0 320 220;" xml:space="preserve">
<style type="text/css">
	.st0{fill:#FFFFFF;stroke:#6A3F24;stroke-width:3;stroke-miterlimit:10;}
	.st1{fill:#6A3F24;}
	.st2{fill:#FFFFFF;}
	.st3{fill:#006838;}
</style>
<g>
	<path class="st0" d="M277.1,90.9L260,159l-3.8,15c-1,3.2-2.3,6.3-4,9.1c-1.9,2.7-4.1,5.1-6.6,7.2c-2.5,2-5.4,3.6-8.5,4.7
		c-2.6,1.1-5.5,1.7-8.3,1.7c-0.5,0-1,0-1.5-0.1H76.4c-0.6,0.1-1.2,0.1-1.8,0.1c-2.9,0-5.8-0.7-8.5-1.9c-3.3-1.1-6.3-2.8-8.8-5.1h0
		c-2.6-2.2-4.8-4.8-6.6-7.8c-1.6-3.1-2.9-6.4-3.7-9.8L32.1,90.4l-1-5.4h0c-0.2-1.5-0.4-3-0.4-4.5v0c0.7-5.7,2.7-11.2,5.9-16
		c1.9-2.2,4.1-4.1,6.6-5.5c2.6-1.6,5.5-2.6,8.5-3l214-33.7c0.8-0.2,1.7-0.3,2.6-0.3c0.2,0,0.4,0,0.6,0c0.5-0.1,1-0.1,1.5-0.1
		c2.3,0,4.5,0.6,6.5,1.8h0c2.6,1,4.9,2.7,6.7,4.8c1.6,1.9,2.9,4,3.9,6.3c0.7,2.3,1.2,4.7,1.3,7.2c-0.1,1.6-0.6,4.8-0.6,4.8
		L277.1,90.9z"/>
</g>
<path class="st1" d="M277.1,91.5l-245-0.4L47,172.8c0.8,3.4,2,6.7,3.7,9.8c1.8,2.9,4,5.5,6.6,7.8h0c2.5,2.3,5.5,4,8.8,5.1
	c2.7,1.3,5.6,1.9,8.5,1.9c0.6,0,1.2,0,1.8-0.1h150.9c0.5,0,1,0.1,1.5,0.1c2.9,0,5.7-0.6,8.3-1.7c3.1-1,6-2.6,8.5-4.7
	c2.5-2.1,4.7-4.5,6.6-7.2c1.7-2.9,3-6,4-9.1l3.8-15L277.1,91.5"/>
<line class="st2" x1="-139.9" y1="170.3" x2="-139.9" y2="170.3"/>
<g>
	<path class="st2" d="M65.9,141c-1.5,0-2.9-0.8-3.7-1.7v5.3l-2.9,1.5V126h2.9v1.4c1.1-1,2.3-1.7,3.8-1.7c3.2,0,5.7,2.3,5.7,7.9
		C71.7,138.6,69,141,65.9,141z M65.5,128.3c-1.4,0-2.6,0.9-3.3,1.9v6.2c0.6,0.9,2,1.9,3.4,1.9c2.1,0,3.2-1.6,3.2-4.7
		C68.8,129.9,67.7,128.3,65.5,128.3z"/>
	<path class="st2" d="M83.5,140.7v-1.5c-1,1-2.4,1.8-4,1.8c-2.4,0-5.1-1.3-5.1-5c0-3.3,2.5-4.8,5.9-4.8c1.4,0,2.5,0.2,3.3,0.6v-1.1
		c0-1.6-1-2.5-2.8-2.5c-1.5,0-2.7,0.3-3.8,0.9l-1.1-2.2c1.4-0.9,3-1.3,5-1.3c3.3,0,5.5,1.6,5.5,4.9v10.1H83.5z M83.5,134.4
		c-0.8-0.4-1.8-0.6-3.4-0.6c-1.8,0-3,0.8-3,2.2c0,1.5,0.9,2.4,2.8,2.4c1.5,0,2.9-1,3.6-1.9V134.4z"/>
	<path class="st2" d="M95.3,146.1l-1-2.2c4.1-0.2,5-1.3,5-4.4v-0.3c-1.1,1-2.3,1.7-3.8,1.7c-3.1,0-5.7-2.3-5.7-7.9
		c0-5,2.8-7.4,5.8-7.4c1.5,0,2.9,0.8,3.7,1.7V126h2.9v13.3C102.2,143.7,100.6,145.9,95.3,146.1z M99.4,130.3c-0.6-0.9-2-1.9-3.4-1.9
		c-2.1,0-3.2,1.6-3.2,4.7c0,3.7,1.2,5.3,3.3,5.3c1.4,0,2.6-0.9,3.3-1.9V130.3z"/>
	<path class="st2" d="M118.3,134.3h-9.7c0.3,2.8,1.9,4,3.7,4c1.2,0,2.2-0.4,3.2-1.2l1.7,1.8c-1.3,1.2-2.8,1.9-5.1,1.9
		c-3.4,0-6.4-2.8-6.4-7.6c0-5,2.6-7.7,6.4-7.7c4.2,0,6.2,3.4,6.2,7.4C118.4,133.6,118.4,134,118.3,134.3z M112,128.3
		c-1.9,0-3.1,1.3-3.4,3.7h6.8C115.4,129.9,114.4,128.3,112,128.3z"/>
	<path class="st2" d="M138.5,140.7v-8.3c0-3-1.1-4-3-4c-1.9,0-3,1.4-3,3.8v8.6h-2.9V126h2.9v1.4c0.7-1.1,2.2-1.7,3.7-1.7
		c3.4,0,5.2,2.2,5.2,6.6v8.4H138.5z"/>
	<path class="st2" d="M151.3,141c-3.7,0-6.5-3.1-6.5-7.6c0-4.8,2.9-7.7,6.6-7.7c3.8,0,6.6,3,6.6,7.6
		C157.9,138.1,155.1,141,151.3,141z M151.3,128.4c-2.2,0-3.5,1.9-3.5,4.8c0,3.2,1.5,5,3.7,5s3.6-2.2,3.6-4.9
		C155,130.3,153.6,128.4,151.3,128.4z"/>
	<path class="st2" d="M168.4,140.3c-0.7,0.4-1.7,0.7-2.8,0.7c-2,0-3.3-1.3-3.3-3.9v-8.5h-2.1V126h2.1v-4.2l2.8-1.5v5.7h3.6v2.6h-3.6
		v8c0,1.4,0.4,1.8,1.5,1.8c0.8,0,1.6-0.3,2.1-0.6L168.4,140.3z"/>
	<path class="st2" d="M185.4,122.9c-1,0-1.3,0.4-1.3,1.4v1.7h2.7v2.7H184v12h-2.9v-12h-1.9V126h1.9V124c0-2.7,1.7-3.7,3.7-3.7
		c0.8,0,1.6,0.1,2.2,0.3v2.5C186.4,122.9,185.9,122.9,185.4,122.9z"/>
	<path class="st2" d="M195.5,141c-3.7,0-6.5-3.1-6.5-7.6c0-4.8,2.9-7.7,6.6-7.7c3.8,0,6.6,3,6.6,7.6
		C202.1,138.1,199.2,141,195.5,141z M195.4,128.4c-2.2,0-3.5,1.9-3.5,4.8c0,3.2,1.5,5,3.7,5c2.2,0,3.6-2.2,3.6-4.9
		C199.2,130.3,197.8,128.4,195.4,128.4z"/>
	<path class="st2" d="M214.5,140.7v-1.4c-0.7,1.1-2.2,1.7-3.7,1.7c-3.4,0-5.2-2.2-5.2-6.6V126h2.9v8.3c0,3,1.1,4,3,4
		c1.9,0,3-1.4,3-3.8V126h2.9v14.7H214.5z"/>
	<path class="st2" d="M230.5,140.7v-8.3c0-3-1.1-4-3-4c-1.9,0-3,1.4-3,3.8v8.6h-2.9V126h2.9v1.4c0.7-1.1,2.2-1.7,3.7-1.7
		c3.4,0,5.2,2.2,5.2,6.6v8.4H230.5z"/>
	<path class="st2" d="M246.4,140.7v-1.4c-1.1,1-2.3,1.7-3.8,1.7c-3.2,0-5.7-2.3-5.7-7.9c0-5,2.7-7.4,5.8-7.4c1.5,0,2.9,0.8,3.7,1.7
		v-5.6l2.9-1.5v20.4H246.4z M246.5,130.3c-0.6-0.9-2-1.9-3.4-1.9c-2.1,0-3.2,1.6-3.2,4.7c0,3.7,1.2,5.3,3.3,5.3
		c1.4,0,2.6-0.9,3.3-1.9V130.3z"/>
	<path class="st2" d="M114.6,169c-2,0-4.1-0.8-5.6-1.9l1.3-2.2c1.4,1,2.9,1.5,4.3,1.5c1.8,0,2.7-0.6,2.7-1.6c0-1.1-1.3-1.7-3.4-2.5
		c-3.2-1.2-4.3-2.3-4.3-4.6c0-2.6,2.1-4,5-4c1.8,0,3.7,0.7,5,1.6l-1.3,2.2c-1.2-0.8-2.4-1.3-3.8-1.3s-2,0.6-2,1.3
		c0,0.7,0.5,1.3,2.7,2.1c3.3,1.3,5,2.2,5,4.9C120.1,167.9,117.5,169,114.6,169z"/>
	<path class="st2" d="M129.3,169c-3.7,0-6.5-3.1-6.5-7.6c0-4.8,2.9-7.7,6.6-7.7c3.8,0,6.6,3,6.6,7.6C136,166.1,133.1,169,129.3,169z
		 M129.3,156.4c-2.2,0-3.5,1.9-3.5,4.8c0,3.2,1.5,5,3.7,5c2.2,0,3.6-2.2,3.6-4.9C133.1,158.3,131.6,156.4,129.3,156.4z"/>
	<path class="st2" d="M147.5,157c-0.6-0.3-1.3-0.5-2.2-0.5c-1.8,0-2.9,1.3-2.9,3.8v8.4h-2.9V154h2.9v1.4c0.7-1,1.9-1.7,3.4-1.7
		c1.2,0,1.9,0.2,2.5,0.6L147.5,157z"/>
	<path class="st2" d="M159.2,157c-0.6-0.3-1.3-0.5-2.2-0.5c-1.8,0-2.9,1.3-2.9,3.8v8.4h-2.9V154h2.9v1.4c0.7-1,1.9-1.7,3.4-1.7
		c1.2,0,1.9,0.2,2.5,0.6L159.2,157z"/>
	<path class="st2" d="M168.1,173.8H165l2.1-5.5l-5.4-14.4h3.2l2.4,7.2c0.4,1.3,1.1,3.5,1.3,4.3c0.3-0.9,0.9-3,1.3-4.2l2.5-7.3h3.1
		L168.1,173.8z"/>
	<path class="st2" d="M187.5,158.1c-1.2,0-2.2-1-2.2-2.2s1-2.2,2.2-2.2s2.2,1,2.2,2.2S188.7,158.1,187.5,158.1z M187.5,169
		c-1.2,0-2.2-1-2.2-2.2s1-2.2,2.2-2.2s2.2,1,2.2,2.2S188.7,169,187.5,169z"/>
	<path class="st2" d="M198.1,171.7c-2.8-2.7-5.5-6.4-5.5-11.5c0-5.2,2.6-8.9,5.5-11.6l1.5,1.3c-2.5,2.8-3.9,6-3.9,10.2
		c0,4.6,1.5,7.7,3.9,10.4L198.1,171.7z"/>
</g>
<g>
	<path class="st3" d="M195.9,73.9v5.8h-8.4v-6h-19v-6.8l18.1-20.8h9.2v20h4.3v7.9H195.9z M183.6,60.7l-0.5,0.6
		c-1.8,2.2-3.2,3.7-4.4,4.9c1.7-0.1,4-0.1,6.3-0.1h2.5v-3.3c0-2,0-5.7,0.1-7.2C186.7,56.9,185.8,58.1,183.6,60.7z"/>
	<path class="st3" d="M219.3,80.2c-8.7,0-15.2-6.1-15.2-17.3c0-11.2,6.5-17.4,15.3-17.4c8.7,0,15.2,6.1,15.2,17.3
		C234.6,74,228,80.2,219.3,80.2z M219.3,53.6c-3.6,0-5.6,3.1-5.6,9.3s2.1,9.4,5.7,9.4c3.6,0,5.6-3.1,5.6-9.3S222.9,53.6,219.3,53.6z
		"/>
	<path class="st3" d="M265.8,73.9v5.8h-8.4v-6h-19v-6.8l18.1-20.8h9.2v20h4.3v7.9H265.8z M253.6,60.7l-0.5,0.6
		c-1.8,2.2-3.2,3.7-4.4,4.9c1.7-0.1,4-0.1,6.3-0.1h2.5v-3.3c0-2,0-5.7,0.1-7.2C256.7,56.9,255.8,58.1,253.6,60.7z"/>
</g>
</svg>
