<?xml version="1.0" encoding="utf-8"?>
<!-- Generator: Adobe Illustrator 22.1.0, SVG Export Plug-In . SVG Version: 6.00 Build 0)  -->
<svg version="1.1" id="Layer_1" xmlns="http://www.w3.org/2000/svg" xmlns:xlink="http://www.w3.org/1999/xlink" x="0px" y="0px"
	 viewBox="0 0 320 220" style="enable-background:new 0 0 320 220;" xml:space="preserve">
<style type="text/css">
	.st0{fill:#FFFFFF;stroke:#6A3F24;stroke-width:3;stroke-miterlimit:10;}
	.st1{fill:#6A3F24;}
	.st2{fill:#FFFFFF;}
	.st3{font-family:'Interstate-Regular';}
	.st4{font-size:28px;}
	.st5{fill:#006838;}
	.st6{font-family:'Interstate-Black';}
	.st7{font-size:48px;}
</style>
<g>
	<path class="st0" d="M277.1,90.9L260,159l-3.8,15c-1,3.2-2.3,6.3-4,9.1c-1.9,2.7-4.1,5.1-6.6,7.2c-2.5,2-5.4,3.6-8.5,4.7
		c-2.6,1.1-5.5,1.7-8.3,1.7c-0.5,0-1,0-1.5-0.1H76.4c-0.6,0.1-1.2,0.1-1.8,0.1c-2.9,0-5.8-0.7-8.5-1.9c-3.3-1.1-6.3-2.8-8.8-5.1h0
		c-2.6-2.2-4.8-4.8-6.6-7.8c-1.6-3.1-2.9-6.4-3.7-9.8L32.1,90.4l-1-5.4h0c-0.2-1.5-0.4-3-0.4-4.5v0c0.7-5.7,2.7-11.2,5.9-16
		c1.9-2.2,4.1-4.1,6.6-5.5c2.6-1.6,5.5-2.6,8.5-3l214-33.7c0.8-0.2,1.7-0.3,2.6-0.3c0.2,0,0.4,0,0.6,0c0.5-0.1,1-0.1,1.5-0.1
		c2.3,0,4.5,0.6,6.5,1.8h0c2.6,1,4.9,2.7,6.7,4.8c1.6,1.9,2.9,4,3.9,6.3c0.7,2.3,1.2,4.7,1.3,7.2c-0.1,1.6-0.6,4.8-0.6,4.8
		L277.1,90.9z"/>
</g>
<path class="st1" d="M277.1,91.5l-245-0.4L47,172.8c0.8,3.4,2,6.7,3.7,9.8c1.8,2.9,4,5.5,6.6,7.8h0c2.5,2.3,5.5,4,8.8,5.1
	c2.7,1.3,5.6,1.9,8.5,1.9c0.6,0,1.2,0,1.8-0.1h150.9c0.5,0,1,0.1,1.5,0.1c2.9,0,5.7-0.6,8.3-1.7c3.1-1,6-2.6,8.5-4.7
	c2.5-2.1,4.7-4.5,6.6-7.2c1.7-2.9,3-6,4-9.1l3.8-15L277.1,91.5"/>
<line class="st2" x1="-139.9" y1="170.3" x2="-139.9" y2="170.3"/>
<text transform="matrix(1 0 0 1 56.769 140.667)"><tspan x="0" y="0" class="st2 st3 st4">page not found</tspan><tspan x="50.8" y="28" class="st2 st3 st4">sorry :(</tspan></text>
<text transform="matrix(1 0 0 1 166.582 79.667)" class="st5 st6 st7">404</text>
</svg>
