<?xml version="1.0" encoding="utf-8"?>
<!-- Generator: Adobe Illustrator 22.1.0, SVG Export Plug-In . SVG Version: 6.00 Build 0)  -->
<svg version="1.1" id="Layer_1" xmlns="http://www.w3.org/2000/svg" xmlns:xlink="http://www.w3.org/1999/xlink" x="0px" y="0px"
	 viewBox="0 0 305 205" style="enable-background:new 0 0 305 205;" xml:space="preserve">
<style type="text/css">
	.st0{fill:#FFFFFF;}
	.st1{fill:#FFFFFF;stroke:#6A3F24;stroke-width:3;stroke-miterlimit:10;}
	.st2{fill:#6A3F24;}
</style>
<path class="st0" d="M164.1,135.3L164.1,135.3"/>
<g>
	<path class="st1" d="M271.8,84.5l-17.1,68.2l-3.8,15c-1,3.2-2.3,6.3-4,9.1c-1.9,2.7-4.1,5.1-6.6,7.2c-2.5,2-5.4,3.6-8.5,4.7
		c-2.6,1.1-5.5,1.7-8.3,1.7c-0.5,0-1,0-1.5-0.1H71.1c-0.6,0.1-1.2,0.1-1.8,0.1c-2.9,0-5.8-0.7-8.5-1.9c-3.3-1.1-6.3-2.8-8.8-5.1l0,0
		c-2.6-2.2-4.8-4.8-6.6-7.8c-1.6-3.1-2.9-6.4-3.7-9.8L26.8,84l-1-5.4l0,0c-0.2-1.5-0.4-3-0.4-4.5l0,0c0.7-5.7,2.7-11.2,5.9-16
		c1.9-2.2,4.1-4.1,6.6-5.5c2.6-1.6,5.5-2.6,8.5-3l214-33.7c0.8-0.2,1.7-0.3,2.6-0.3c0.2,0,0.4,0,0.6,0c0.5-0.1,1-0.1,1.5-0.1
		c2.3,0,4.5,0.6,6.5,1.8l0,0c2.6,1,4.9,2.7,6.7,4.8c1.6,1.9,2.9,4,3.9,6.3c0.7,2.3,1.2,4.7,1.3,7.2c-0.1,1.6-0.6,4.8-0.6,4.8
		L271.8,84.5z"/>
</g>
<path class="st2" d="M271.8,85.2l-245-0.4l14.9,81.8c0.8,3.4,2,6.7,3.7,9.8c1.8,2.9,4,5.5,6.6,7.8l0,0c2.5,2.3,5.5,4,8.8,5.1
	c2.7,1.3,5.6,1.9,8.5,1.9c0.6,0,1.2,0,1.8-0.1H222c0.5,0,1,0.1,1.5,0.1c2.9,0,5.7-0.6,8.3-1.7c3.1-1,6-2.6,8.5-4.7
	c2.5-2.1,4.7-4.5,6.6-7.2c1.7-2.9,3-6,4-9.1l3.8-15L271.8,85.2"/>
<path class="st0" d="M199.8,135.1h-26.1l-7-24h13.8v-7.3h-61.4v7.4h14.4l-7,23.9h-26.4v6.2h24.5l-9,30.5h10.6l9-30.5h29.3l8.9,30.5
	h11.1l-9.1-30.5h24.3L199.8,135.1L199.8,135.1L199.8,135.1z M137.2,135.1l7.1-24h11.6l6.8,24H137.2L137.2,135.1L137.2,135.1z"/>
</svg>
