<?xml version="1.0" encoding="utf-8"?>
<!-- Generator: Adobe Illustrator 22.1.0, SVG Export Plug-In . SVG Version: 6.00 Build 0)  -->
<svg version="1.1" id="Layer_1" xmlns="http://www.w3.org/2000/svg" xmlns:xlink="http://www.w3.org/1999/xlink" x="0px" y="0px"
	 viewBox="0 0 200 116" style="enable-background:new 0 0 200 116;" xml:space="preserve">
<style type="text/css">
	.st0{fill:#FFFFFF;}
	.st1{fill:#FFFFFF;stroke:#6A3F24;stroke-width:3;stroke-miterlimit:10;}
	.st2{fill:#6A3F24;}
</style>
<path class="st0" d="M105.6,77.2L105.6,77.2"/>
<g>
	<path class="st1" d="M170.9,46.4l-10.4,41.4l-2.3,9.1c-0.6,1.9-1.4,3.8-2.4,5.6c-1.1,1.6-2.5,3.1-4,4.3c-1.5,1.2-3.3,2.2-5.2,2.8
		c-1.6,0.7-3.3,1-5.1,1c-0.3,0-0.6,0-0.9,0H49.1c-0.4,0-0.7,0.1-1.1,0.1c-1.8,0-3.5-0.4-5.2-1.2c-2-0.6-3.8-1.7-5.3-3.1h0
		c-1.6-1.4-2.9-2.9-4-4.7c-1-1.9-1.7-3.9-2.2-6l-9-49.6l-0.6-3.3h0c-0.1-0.9-0.2-1.8-0.3-2.7v0c0.4-3.5,1.7-6.8,3.6-9.7
		c1.2-1.3,2.5-2.5,4-3.4c1.6-1,3.3-1.6,5.1-1.8L164,4.8c0.5-0.1,1-0.2,1.6-0.2c0.1,0,0.2,0,0.3,0c0.3,0,0.6-0.1,0.9-0.1
		c1.4,0,2.8,0.4,4,1.1h0c1.6,0.6,3,1.6,4.1,2.9c1,1.1,1.8,2.4,2.4,3.8c0.4,1.4,0.7,2.9,0.8,4.4c0,1-0.4,2.9-0.4,2.9L170.9,46.4z"/>
</g>
<path class="st2" d="M170.9,46.8L22.3,46.6l9,49.6c0.5,2.1,1.2,4.1,2.2,6c1.1,1.8,2.4,3.4,4,4.7h0c1.5,1.4,3.4,2.5,5.3,3.1
	c1.6,0.8,3.4,1.2,5.2,1.2c0.4,0,0.7,0,1.1-0.1h91.6c0.3,0,0.6,0,0.9,0c1.7,0,3.5-0.4,5.1-1c1.9-0.6,3.6-1.6,5.2-2.8
	c1.5-1.3,2.9-2.7,4-4.3c1-1.8,1.8-3.6,2.4-5.6l2.3-9.1L170.9,46.8"/>
<path class="st0" d="M127.3,77.1h-15.8l-4.3-14.6l8.4,0v-4.4H78.3l0,4.5l8.7,0l-4.2,14.5h-16v3.8h14.9l-5.5,18.5h6.4l5.5-18.5h17.8
	l5.4,18.5h6.7l-5.5-18.5h14.8V77.1L127.3,77.1L127.3,77.1z M89.2,77.1l4.3-14.6l7,0l4.2,14.6H89.2L89.2,77.1L89.2,77.1z"/>
</svg>
