<?xml version="1.0" encoding="utf-8"?>
<!-- Generator: Adobe Illustrator 22.1.0, SVG Export Plug-In . SVG Version: 6.00 Build 0)  -->
<svg version="1.1" id="Layer_1" xmlns="http://www.w3.org/2000/svg" xmlns:xlink="http://www.w3.org/1999/xlink" x="0px" y="0px"
	 viewBox="0 0 100 125" style="enable-background:new 0 0 100 125;" xml:space="preserve">
<style type="text/css">
	.st0{fill:#FFFFFF;}
</style>
<g>
	<path class="st0" d="M45.5,18.5c-1.5,0-2.8,1.1-3,2.6l-0.9,5.1c-0.8,0.3-1.6,0.7-2.5,1l-4.3-3c-1.2-0.9-2.9-0.7-3.9,0.3l-2.4,2.4
		l-1.6,1.6v0l-2.3,2.3l0,0c-1,1-1.3,2.7-0.4,4l3,4.3c-0.4,0.8-0.7,1.6-1,2.4l-5.1,0.9c-1.5,0.3-2.6,1.5-2.6,3v3.4v2.3v3.3
		c0,1.5,1.1,2.8,2.6,3.1l5.1,0.9c0.3,0.8,0.6,1.6,1,2.5l-3,4.2c-0.9,1.2-0.8,2.9,0.3,4l2.4,2.4l1.6,1.6l2.3,2.3c1,1.1,2.8,1.3,4,0.4
		l4.3-3c0.8,0.4,1.6,0.7,2.4,1l0.9,5.2c0.3,1.5,1.6,2.6,3,2.6h3.3h2.3h3.3c1.5,0,2.8-1.1,3.1-2.6l0.9-5.2c0.8-0.3,1.6-0.6,2.4-1
		l4.3,3c1.3,0.9,3,0.7,4-0.4l2.4-2.3c0,0,0,0,0,0l1.6-1.6l2.4-2.4c1-1,1.2-2.7,0.3-3.9l-3-4.3c0.4-0.8,0.7-1.6,1-2.5l5.2-0.9
		c1.5-0.3,2.6-1.6,2.6-3.1v-3.3v-2.3v-3.4c0-1.5-1.1-2.8-2.6-3l-5.2-0.9c-0.3-0.8-0.6-1.6-1-2.4l3-4.3c0.9-1.2,0.7-2.9-0.3-4
		l-2.4-2.4l-1.6-1.6l-2.4-2.4c-1-1-2.7-1.2-4-0.3l-4.2,3c-0.8-0.4-1.6-0.7-2.5-1l-0.9-5.1c-0.3-1.5-1.6-2.6-3.1-2.6h-3.3h-2.3
		L45.5,18.5L45.5,18.5z M45.5,20.1h3.3h2.3h3.3c0.7,0,1.4,0.6,1.5,1.3l0.9,5.6c0,0.3,0.3,0.5,0.5,0.6c1.1,0.4,2.1,0.8,3.1,1.3
		c0.3,0.1,0.6,0.1,0.8-0.1l4.7-3.3c0.6-0.4,1.4-0.3,1.9,0.2c0,0,0,0,0,0l2.4,2.3l1.6,1.6l2.4,2.3c0.5,0.5,0.6,1.4,0.2,2l-3.3,4.7
		c-0.2,0.2-0.2,0.6-0.1,0.8c0.5,1,0.9,2,1.3,3.1c0.1,0.3,0.3,0.5,0.6,0.5l5.6,0.9c0.7,0.1,1.2,0.8,1.2,1.5v3.4v2.3v3.3
		c0,0.7-0.6,1.4-1.2,1.5l-5.6,0.9c-0.3,0.1-0.5,0.3-0.6,0.5c-0.4,1.1-0.8,2.1-1.3,3.1c-0.1,0.3-0.1,0.6,0.1,0.8l3.3,4.6
		c0.4,0.6,0.3,1.5-0.2,2L72,70.4L70.4,72L68,74.3c-0.5,0.5-1.4,0.6-1.9,0.2l-4.7-3.3c-0.2-0.2-0.6-0.2-0.8-0.1c-1,0.5-2,0.9-3.1,1.3
		c-0.3,0.1-0.5,0.3-0.5,0.6L56,78.7c-0.1,0.6-0.8,1.3-1.5,1.3h-3.3h-2.3h-3.3c-0.7,0-1.4-0.6-1.5-1.3l-0.9-5.6
		c-0.1-0.3-0.3-0.5-0.5-0.6c-1.1-0.4-2.1-0.8-3.1-1.3c-0.3-0.1-0.6-0.1-0.8,0.1L34,74.5c-0.5,0.4-1.5,0.3-2-0.2L29.7,72l-1.6-1.6
		L25.7,68c-0.5-0.5-0.6-1.4-0.2-2l3.3-4.6c0.2-0.2,0.2-0.6,0.1-0.8c-0.5-1-0.9-2-1.3-3.1c-0.1-0.3-0.3-0.5-0.6-0.5L21.3,56
		c-0.6-0.1-1.3-0.8-1.3-1.5v-3.3v-2.3v-3.4c0-0.7,0.6-1.4,1.3-1.5l5.6-1c0.3,0,0.5-0.3,0.6-0.5c0.4-1.1,0.8-2.1,1.3-3.1
		c0.1-0.3,0.1-0.6-0.1-0.8L25.5,34c-0.4-0.5-0.3-1.5,0.2-2l2.3-2.3l1.6-1.6l2.4-2.3c0,0,0,0,0,0c0.5-0.5,1.4-0.6,1.9-0.2l4.7,3.3
		c0.2,0.2,0.6,0.2,0.8,0.1c1-0.5,2-0.9,3.1-1.3c0.3-0.1,0.5-0.3,0.5-0.6l0.9-5.6C44.1,20.7,44.8,20.1,45.5,20.1L45.5,20.1z M50,36.9
		c-7.2,0-13.1,5.9-13.1,13.1c0,7.2,5.9,13.1,13.1,13.1S63.1,57.3,63.1,50C63.1,42.8,57.2,36.9,50,36.9L50,36.9z M50,38.5
		c6.4,0,11.6,5.2,11.6,11.6S56.4,61.6,50,61.6c-6.4,0-11.5-5.1-11.5-11.5S43.6,38.5,50,38.5L50,38.5z"/>
</g>
</svg>
