<?xml version="1.0" encoding="utf-8"?>
<!-- Generator: Adobe Illustrator 22.1.0, SVG Export Plug-In . SVG Version: 6.00 Build 0)  -->
<svg version="1.1" xmlns="http://www.w3.org/2000/svg" xmlns:xlink="http://www.w3.org/1999/xlink" x="0px" y="0px"
	 viewBox="0 0 840 318.5" style="enable-background:new 0 0 840 318.5;" xml:space="preserve">
<style type="text/css">
	.st0{display:none;}
	.st1{display:inline;fill:#006838;}
	.st2{fill:#FFFFFF;}
	.st3{fill:#FFFFFF;stroke:#6A3F24;stroke-width:3;stroke-miterlimit:10;}
	.st4{fill:#6A3F24;}
</style>
<g id="Layer_1" class="st0">
	<rect x="-39.9" y="-46.4" class="st1" width="981" height="406.5"/>
</g>
<g id="Layer_2">
	<path class="st2" d="M171.1,171.3L171.1,171.3"/>
	<g>
		<path class="st3" d="M278.8,120.5l-17.1,68.2l-3.8,15c-1,3.2-2.3,6.3-4,9.1c-1.9,2.7-4.1,5.1-6.6,7.2c-2.5,2-5.4,3.6-8.5,4.7
			c-2.6,1.1-5.5,1.7-8.3,1.7c-0.5,0-1,0-1.5-0.1H78.1c-0.6,0.1-1.2,0.1-1.8,0.1c-2.9,0-5.8-0.7-8.5-1.9c-3.3-1.1-6.3-2.8-8.8-5.1h0
			c-2.6-2.2-4.8-4.8-6.6-7.8c-1.6-3.1-2.9-6.4-3.7-9.8l-14.9-81.8l-1-5.4h0c-0.2-1.5-0.4-3-0.4-4.5v0c0.7-5.7,2.7-11.2,5.9-16
			c1.9-2.2,4.1-4.1,6.6-5.5c2.6-1.6,5.5-2.6,8.5-3l214-33.7c0.8-0.2,1.7-0.3,2.6-0.3c0.2,0,0.4,0,0.6,0c0.5-0.1,1-0.1,1.5-0.1
			c2.3,0,4.5,0.6,6.5,1.8h0c2.6,1,4.9,2.7,6.7,4.8c1.6,1.9,2.9,4,3.9,6.3c0.7,2.3,1.2,4.7,1.3,7.2c-0.1,1.6-0.6,4.8-0.6,4.8
			L278.8,120.5z"/>
	</g>
	<g>
		<path class="st2" d="M367.1,154.9h-0.4c-0.8,0.7-1.5,1.6-1.9,2.6h0c-0.4,1-0.6,2.2-0.6,3.3v0.4l0,0.9c0,0,2.3,38.8,2.4,39.9
			c0.2,1.9,0.3,3.7,0.3,5.6c0,1.6-0.2,3.2-0.5,4.8c-0.4,1.5-1.1,2.9-2.1,4.2v0c-1.2,1.4-2.6,2.5-4.3,3.2c-1.1,0.5-2.1,0.9-3.3,1.2v0
			c-1.3,0.4-2.7,0.7-4.1,0.9v0c-0.8,0.1-1.6,0.1-2.4,0.2c-2.1,0-4.2-0.4-6.2-1.1c-1.8-0.7-3.4-1.7-4.7-3v0c-1.3-1.3-2.4-2.8-3.2-4.5
			c-0.8-1.7-1.4-3.6-1.7-5.5c-1.3-4.2-2.2-8.6-2.8-13c-0.6-4.2-0.8-8.4-0.8-12.7v-0.7c0-3.4,0.1-6.8,0.4-10.2
			c0.3-3.6,0.6-7.2,1.1-10.8c0.4-3.8,1-7.6,1.5-11.4c0.6-4.1,1.2-8.1,1.8-12.1c1.2-7.7,2.3-15.3,3.4-23l0.8-11c0-0.3,0-0.5-0.1-0.7
			c0-0.1-0.1-0.3-0.2-0.5c-0.1-0.2-0.4-0.4-0.7-0.4h0c-0.2,0-0.3,0-0.4,0.1c-0.2,0-0.3,0.1-0.4,0.2h0c-0.4,0.2-0.8,0.3-1.1,0.6
			c-1,0.6-1.9,1.2-2.8,1.9c-1.2,0.9-2.5,1.7-3.8,2.6h0c-1.3,0.8-2.7,1.5-4.2,2.1c-0.9,0.6-1.9,1-3,1.4c-0.8,0.2-1.6,0.4-2.3,0.4
			c-1.1,0-2.2-0.4-3.1-1c-0.4-0.3-0.8-0.6-1.2-1c-0.4-0.4-0.7-0.7-1.1-1.1v0c-0.3-0.3-0.5-0.6-0.8-0.8c-0.3-0.3-0.5-0.5-0.8-0.7
			c-0.7-0.6-1.3-1.3-1.9-2.1v0c-0.6-0.9-1.1-1.7-1.4-2.7c-0.8-2.1-1.2-4.2-1.2-6.4c0-1.6,0.3-3.2,0.8-4.7c0.5-1.4,1.4-2.7,2.5-3.7
			c1.1-0.9,2.3-1.8,3.5-2.5c1.5-0.9,3-1.7,4.5-2.4c3-1.5,6.1-2.8,9.2-4c8.2-2.6,16.5-4.3,25-5.3c3.8-0.4,7.7-0.7,11.5-0.9v0
			c4-0.2,7.9-0.3,11.9-0.4c4-0.1,8.1-0.2,12.1-0.3c0.9-0.1,1.8-0.1,2.7-0.1c6.3,0,12.6,0.8,18.7,2.5c2,0.6,3.9,1.2,5.8,1.9
			c0.6,0.3,1.2,0.5,1.8,0.8v0c0.2,0.1,0.4,0.2,0.6,0.3h0c0.1,0.1,0.2,0.1,0.4,0.2c0.8,0.6,1.6,1,2.5,1.5c0.9,0.5,1.7,0.9,2.6,1.3
			c1.5,0.7,2.9,1.5,4.3,2.3v0c1.3,0.9,2.6,1.9,3.7,3c6.4,7.1,10,16.3,10.1,25.9c0,4.7-1,9.3-2.8,13.6l0,0c-2,4.5-5,8.5-8.8,11.6
			c-1.4,1.2-2.9,2.2-4.5,3.2c-1.8,1.1-3.6,2.1-5.5,3c-2.1,1-4.3,1.9-6.6,2.8c-2.5,0.9-5.1,1.8-7.6,2.6h0l-41.1,8.3 M373.3,98.4
			c-3.7,2.4-3.7,3.4-3.7,6.1c0,2.7-2,19.3,0.7,21c2.7,1.7,17.1,0.8,28-4.2c10.9-4.9,14.3-7.8,13.8-13.8c-0.5-6-3.8-8.6-8.2-8.7
			c-4.4-0.1-16.3-0.7-17.3-0.7C385.4,98.1,373.3,98.4,373.3,98.4"/>
		<g>
			<path class="st2" d="M484.5,110.6L484.5,110.6c0.1-0.6,0.2-1.3,0.2-1.9c0-0.9-0.1-1.7-0.3-2.5c-0.2-0.8-0.5-1.6-0.9-2.4v0
				c-0.4-0.8-0.9-1.5-1.5-2.2v0c-0.6-0.7-1.3-1.4-2-2h0c-1.6-1.3-3.4-2.3-5.4-3c-2-0.7-4.1-1.1-6.3-1.1h-0.3h-0.2
				c-2.1,0-4.2,0.3-6.2,0.9c-0.9,0.3-1.7,0.6-2.6,0.9c-0.8,0.4-1.5,0.8-2.2,1.3c-1.3,0.9-2.4,2-3.3,3.2v0c-0.9,1.1-1.5,2.4-2,3.8
				c-0.4,1.3-0.6,2.7-0.6,4.1c0,2,0.5,4,1.3,5.8c0.5,0.9,1.1,1.7,1.7,2.5c0.7,0.8,1.5,1.4,2.3,2v0c0.6,0.4,1.2,0.7,1.9,1
				c0.7,0.3,1.4,0.6,2.2,0.7c0.8,0.2,1.7,0.3,2.5,0.4v0c0.8,0.1,1.7,0.1,2.5,0.1h0.2h0.2c2,0,4-0.3,6-0.7c1-0.2,2.1-0.5,3-0.9
				c1-0.3,1.9-0.7,2.8-1.2c0.9-0.5,1.7-1,2.6-1.6c0.7-0.6,1.4-1.2,2-1.9C483.2,114.3,484.1,112.5,484.5,110.6"/>
			<path class="st2" d="M714.3,109.1L714.3,109.1c0.1-0.6,0.2-1.3,0.2-1.9c0-0.9-0.1-1.7-0.3-2.5c-0.2-0.8-0.5-1.6-0.9-2.4v0
				c-0.4-0.8-0.9-1.5-1.5-2.2v0c-0.6-0.7-1.3-1.4-2-2h0c-1.6-1.3-3.4-2.3-5.4-3c-2-0.7-4.1-1.1-6.3-1.1h-0.3h-0.2
				c-2.1,0-4.2,0.3-6.2,0.9c-0.9,0.3-1.7,0.6-2.6,0.9c-0.8,0.4-1.5,0.8-2.2,1.3c-1.3,0.9-2.4,2-3.3,3.2v0c-0.9,1.1-1.5,2.4-2,3.8
				c-0.4,1.3-0.6,2.7-0.6,4.1c0,2,0.5,4,1.3,5.8c0.5,0.9,1.1,1.7,1.7,2.5c0.7,0.8,1.5,1.4,2.3,2v0c0.6,0.4,1.2,0.7,1.9,1
				c0.7,0.3,1.4,0.6,2.2,0.7c0.8,0.2,1.7,0.3,2.5,0.4v0c0.8,0.1,1.7,0.1,2.5,0.1h0.2h0.2c2,0,4-0.3,6-0.7c1-0.2,2.1-0.5,3-0.9
				c1-0.3,1.9-0.7,2.8-1.2c0.9-0.5,1.7-1,2.6-1.6c0.7-0.6,1.4-1.2,2-1.9C713.1,112.8,713.9,111,714.3,109.1"/>
			<path class="st2" d="M800.2,165.9c-0.4-2-1.1-4.1-2-6h-0.1c-1.6-3.2-4.5-5.5-7.9-6.6c-1.5,9.5-4.9,18.6-9.9,26.8
				c-0.9,1.2-1.9,2.3-3,3.3c-0.9,0.8-1.9,1.5-3,2.1c-1.9,1.3-3.9,3.2-8.5,3.9s-8.3-0.1-8.3-0.1c-1.5,0-2.9-1.4-4-2.3
				c-0.6-0.5-1-1-1.5-1.5v-0.1c-0.5-0.6-0.8-1.3-1.1-2c-0.7-1.6-1.1-3.3-1.4-4.9h0c-0.3-1.9-0.4-3.7-0.4-5.6v-0.1
				c0-2.3,0.2-4.7,0.6-7.1c0-5,1.2-9.8,3.5-14.2c0.9-1.8,2.1-3.5,3.6-4.8l0,0c0.6-0.6,1.3-1,2.1-1.4c0.7-0.3,1.4-0.5,2.2-0.5
				c0.8,0,1.6,0.2,2.3,0.6c0.3,0.1,0.6,0.4,0.9,0.6c0.2,0.3,0.4,0.7,0.5,1c0.1,0.5,0.2,0.9,0.3,1.4v0c0.1,0.5,0.2,1,0.2,1.5v0
				c0.1,0.7,0.2,1.4,0.3,2.1c0.1,0.7,0.3,1.3,0.6,1.9c0.6,1.1,1.8,1.8,3.1,1.8c0.3,0,0.6,0,0.9,0h0c1.7-0.5,3.3-1.1,4.9-1.9
				c0.7-0.3,1.4-0.7,2-1.2v0c0.6-0.4,1.1-0.9,1.5-1.5c2-3.8,3-8,3-12.3c0-0.3,0-0.5,0-0.8c0-3.1-0.7-6.2-1.9-9
				c-0.6-1.4-1.4-2.6-2.4-3.7c-1-1.1-2.1-1.9-3.4-2.4h0c-2.3-1.4-4.7-2.5-7.2-3.3c-2.2-0.8-4.6-1.1-7-1.1c-4.2,0.1-8.2,1.4-11.7,3.7
				c-2.1,1.4-4,3-5.8,4.8c-2.1,2.2-4,4.5-5.7,6.9c-2.5,2.8-4.7,5.9-6.7,9.1c-1.9,3.3-3.7,6.6-5.4,10c-1.6,3.4-3.4,6.8-5.4,10
				c-1.9,3.3-2.9,5.6-5.4,8.5l-1,1c0,0-2.1,2.2-3.1,3.5c-1.9,2.3-4.4,4-7.3,4.8v0c-0.4-0.2-0.8-0.4-1.1-0.7v0
				c-0.3-0.3-0.7-0.7-0.9-1v0c-0.7-0.9-1.2-2-1.5-3.2c-0.4-1.5-0.7-3-0.8-4.5c-0.2-1.8-0.3-3.6-0.3-5.5v-0.5c0-3.7,0.2-7.5,0.6-11.2
				c0.4-4.2,1.2-8.3,2.3-12.4c0.4-1.9,0.7-3.8,0.8-5.8c0-0.6-0.1-1.3-0.2-1.9c-0.1-0.5-0.3-1-0.6-1.4c-0.2-0.3-0.5-0.6-0.7-0.8
				c-0.3-0.2-0.6-0.5-1-0.7h0c-0.9-0.5-1.7-0.9-2.7-1.1h-0.1c-2-0.7-4.3-1-6.5-1h-0.6h-0.3c-3.2,0-6.3,0.7-9.2,2
				c-2.9,1.4-5,3.9-5.9,7l-0.8,3c-0.5,1.9-1.2,3.7-1.9,5.5c-1,2.4-2.1,4.7-3.3,7c-3.2,6.3-6.7,12.5-10.5,18.5
				c-0.7,1.2-1.6,2.5-2.4,3.6c-0.7,0.9-1.5,1.8-2.3,2.6l-2.4,1.9c-0.6,0.3-1.3,0.4-2,0.4h-0.1c-1,0-1.9-0.4-2.6-1.1v0
				c-0.5-0.4-0.8-0.9-1.1-1.4c-0.4-0.7-0.7-1.4-0.9-2.2c-0.3-1.2-0.5-2.4-0.5-3.6v-0.4c0-2.5,0.3-5.1,0.9-7.6
				c0.7-3.4,1.7-6.7,2.8-10c0.6-2,1.2-3.9,1.8-5.9c0.4-1.7,0.6-3.3,0.7-5c0-1.5-0.2-3-0.6-4.4c-0.7-2.4-1.8-4.6-3.4-6.5
				c-1.8-2.2-3.9-4.1-6.4-5.5c-2.6-1.1-5.4-1.6-8.2-1.7h-0.4c-3.5,0-6.9,1-9.8,3c-3,1.8-5.6,4.1-7.7,6.9c-3.3,4.2-5.9,8.9-7.7,14
				c0-1.5-0.2-3-0.3-4.6c-0.2-1.3-0.4-2.6-0.7-3.9c-0.7-2.4-1.9-4.6-3.5-6.5c-2-2.4-5-3.8-8.2-3.8h-0.1h-0.2c-2.2,0-4.4,0.4-6.4,1.3
				c-2.7,1-5.4,2.3-7.8,4c0,0.1-0.1,0.1-0.2,0.1c-0.1,0.1-0.2,0.1-0.3,0.2h0c-0.3,0.2-0.6,0.5-0.9,0.8c-9.2,9.9-19.4,28.8-19.4,28.8
				c-3.5,7.5-10.5,13.4-16.8,18.9c-2.1,1.7-4.4,3.1-6.8,4.2c-0.9,0.4-1.8,0.7-2.8,1v0c-0.8,0.2-1.6,0.3-2.4,0.3h-0.2
				c-1.5,0-2.9-0.5-4-1.3c-0.6-0.5-1-1-1.5-1.5V187c-0.5-0.6-0.8-1.3-1.1-2c-0.7-1.6-1.1-3.3-1.4-4.9h0c-0.3-1.9-0.4-3.7-0.4-5.6
				v-0.1c0-2.3,0.2-4.7,0.6-7.1c0-5,1.2-9.8,3.5-14.2c0.9-1.8,2.1-3.5,3.6-4.8l0,0c0.6-0.6,1.3-1,2.1-1.4c0.7-0.3,1.4-0.5,2.2-0.5
				c0.8,0,1.6,0.2,2.3,0.6c0.3,0.1,0.6,0.4,0.9,0.6c0.2,0.3,0.4,0.7,0.5,1c0.1,0.5,0.2,0.9,0.3,1.4v0c0.1,0.5,0.2,1,0.2,1.5v0
				c0.1,0.7,0.2,1.4,0.3,2.1c0.1,0.7,0.3,1.3,0.6,1.9c0.6,1.1,1.8,1.8,3.1,1.8c0.3,0,0.6,0,0.9,0h0c1.7-0.5,3.3-1.1,4.9-1.9
				c0.7-0.3,1.4-0.7,2-1.2v0c0.6-0.4,1.1-0.9,1.5-1.5c2-3.8,3-8,3-12.3c0-0.3,0-0.5,0-0.8c0-3.1-0.7-6.2-1.9-9
				c-0.6-1.4-1.4-2.6-2.4-3.7c-1-1.1-2.1-1.9-3.4-2.4h0c-2.3-1.4-4.7-2.5-7.2-3.3c-2.2-0.8-4.6-1.1-7-1.1c-4.2,0.1-8.2,1.4-11.7,3.7
				c-2.1,1.4-4,3-5.8,4.8c-2.1,2.2-4,4.5-5.7,6.9c-2.5,2.8-4.7,5.9-6.7,9.1c-1.9,3.3-3.7,6.6-5.4,10c-1.6,3.4-3.4,6.8-5.4,10
				c-1.9,3.3-2.9,5.6-5.4,8.5l-1,1c0,0-2.1,2.2-3.1,3.5c-1.9,2.3-4.4,4-7.3,4.8v0c-0.4-0.2-0.8-0.4-1.1-0.7v0
				c-0.3-0.3-0.7-0.7-0.9-1v0c-0.7-0.9-1.2-2-1.5-3.2c-0.4-1.5-0.7-3-0.8-4.5c-0.2-1.8-0.3-3.6-0.3-5.5v-0.5c0-3.7,0.2-7.5,0.6-11.2
				c0.4-4.2,1.2-8.3,2.3-12.4c0.4-1.9,0.7-3.8,0.8-5.8c0-0.6-0.1-1.3-0.2-1.9c-0.1-0.5-0.3-1-0.6-1.4c-0.2-0.3-0.5-0.6-0.7-0.8
				c-0.3-0.2-0.6-0.5-1-0.7h0c-0.9-0.5-1.7-0.9-2.7-1.1h-0.1c-2-0.7-4.3-1-6.5-1H459h-0.3c-3.2,0-6.3,0.7-9.2,2
				c-2.9,1.4-5,3.9-5.9,7l-0.8,3c-0.5,1.9-1.2,3.7-1.9,5.5c-1,2.4-2.1,4.7-3.3,7c-3.2,6.3-6.7,12.5-10.5,18.5
				c-0.7,1.2-1.6,2.5-2.4,3.6c-0.7,0.9-1.5,1.8-2.3,2.6c-0.7,0.6-1.4,1.1-2.2,1.6c-0.6,0.3-1.3,0.5-2,0.5h-0.1
				c-1-0.3-1.9-2.3-1.9-2.3c-5.1-8.2-3.5-24.1-7.6-23.6s-6.3,3.4-7.9,6.6h-0.1c-0.9,1.9-1.5,3.9-2,6c-0.4,2.6-0.6,5.2-0.6,7.8
				c0,2.3,0,3.5,0.2,5.8l0.1,1.1c0.4,3.5,1.2,6.9,2.4,10.1c1.4,3.7,3.1,7.2,5.1,10.5c1,1.7,2,3.3,3.2,4.9h0c0.9,1.3,2.1,2.5,3.3,3.5
				c0,0,3.8,2.7,9.5-0.6v0c2.8-1.1,5.4-2.5,7.7-4.3c2.7-1.9,5.2-4,7.5-6.4c2.5-2.5,4.9-5.1,7.1-7.8v0c1.2,2.9,2.6,5.7,4.3,8.4
				c1.3,2,2.9,3.9,4.6,5.5c2.8,2.5,6.4,3.9,10.1,4h0.3c2.3,0,4.6-0.5,6.8-1.4l8-5.4c1.4-1,2.8-2.2,4.1-3.3c1.1-1,2.2-2.1,3.1-3.4h0
				c0.7-0.6,1.4-1.2,2.1-1.8v0c0.6-0.5,1.2-1,1.7-1.5c0.5-0.4,1-0.8,1.5-1.1c0.4-0.3,0.9-0.6,1.4-0.8c0.4-0.2,0.9-0.3,1.3-0.3
				c0.5,0,1,0.1,1.5,0.3l0,0c0.6,0.3,1.2,0.7,1.6,1.2c0.7,0.6,1.3,1.3,1.9,2c0.7,1,1.5,2,2.1,3.1c3.8,5.2,8.8,9.4,14.6,12.4v0
				c5.5,3,11.6,4.6,17.9,4.6h0.4c2,0,4-0.2,6-0.8c25-11.3,32.3-41,36.5-45.9c0.8-1.4,1.4-2.1,2.4-1.4c0.3,0.2-0.2,1.9-0.2,3.3
				c0,1,0,1.9-0.1,2.9c0,6.9-0.2,13.7-0.5,20.6v0c-0.1,0.9-0.1,1.9-0.1,2.8c0,1.7,0.2,3.3,0.4,4.9H578c0.3,1.4,0.8,2.7,1.5,3.8
				c0.8,1.2,1.9,2.2,3.2,2.9c1.6,0.9,3.4,1.6,5.2,1.9c1.4,0.4,2.9,0.6,4.4,0.6h0.2c2.3,0,4.6-0.7,6.4-2.1c1-0.7,1.8-1.6,2.4-2.6
				c0.8-1.2,1.4-2.4,1.9-3.7v0c0.2-0.4,0.3-0.9,0.4-1.4c0.2-0.7,0.3-1.3,0.4-2c0.3-1.9,0.6-3.8,0.8-5.8c0.4-2.8,1.1-5.5,2.2-8.1
				c1.4-3.2,3-6.4,4.8-9.3c1-1.6,2-3.2,3-4.7c0.8-1.1,1.6-2.1,2.4-3.1c0.3-0.1,0.6-0.2,0.9-0.2h0h0c0.4,0,0.8,0.1,1.2,0.3
				c0.4,1.9,0.6,3.7,0.8,5.6c0.2,2.3,0.3,4.6,0.3,6.9v0.6v2.5v0.6c0,4.2,0.9,8.4,2.5,12.3c1.8,3.7,4.4,6.8,7.7,9.3l0.4,0.4
				c1.9,1.5,4.1,2.8,6.3,3.7c2,0.8,4.1,1.2,6.2,1.2h0.1h0.2c2.7,0,5.3-0.5,7.7-1.6v0c2.8-1.1,5.4-2.5,7.7-4.3c2.7-1.9,5.2-4,7.5-6.4
				c2.5-2.5,4.9-5.1,7.1-7.8v0c1.2,2.9,2.6,5.7,4.3,8.4c1.3,2,2.9,3.9,4.6,5.5c2.8,2.5,6.4,3.9,10.1,4h0.3c2.3,0,4.6-0.5,6.8-1.4
				l8-5.4c1.4-1,2.8-2.2,4.1-3.3c1.1-1,2.2-2.1,3.1-3.4h0c0.7-0.6,1.4-1.2,2.1-1.8v0c0.6-0.5,1.2-1,1.7-1.5c0.5-0.4,1-0.8,1.5-1.1
				c0.4-0.3,0.9-0.6,1.4-0.8c0.4-0.2,0.9-0.3,1.3-0.3c0.5,0,1,0.1,1.5,0.3l0,0c0.6,0.3,1.2,0.7,1.6,1.2c0.7,0.6,1.3,1.3,1.9,2
				c0.7,1,1.5,2,2.1,3.1c3.8,5.2,8.8,9.4,14.6,12.4v0c5.5,3,11.6,6.3,17.9,6.3l4.7-0.1h0.3c2.8,0,5.6-0.5,8.3-1.4
				c2-0.6,4-1.4,5.9-2.3c1.5-0.7,2.9-1.6,4.2-2.6c1.2-1,2.4-2.2,3.3-3.5h0c1.2-1.5,2.2-3.2,3.2-4.9c2-3.3,3.7-6.9,5.1-10.5
				c1.1-3.3,1.9-6.6,2.4-10.1l0.3-6.9C800.8,171.1,800.6,168.4,800.2,165.9z"/>
		</g>
	</g>
	<path class="st4" d="M278.8,121.2l-245-0.4l14.9,81.8c0.8,3.4,2,6.7,3.7,9.8c1.8,2.9,4,5.5,6.6,7.8h0c2.5,2.3,5.5,4,8.8,5.1
		c2.7,1.3,5.6,1.9,8.5,1.9c0.6,0,1.2,0,1.8-0.1H229c0.5,0,1,0.1,1.5,0.1c2.9,0,5.7-0.6,8.3-1.7c3.1-1,6-2.6,8.5-4.7
		c2.5-2.1,4.7-4.5,6.6-7.2c1.7-2.9,3-6,4-9.1l3.8-15L278.8,121.2"/>
	<path class="st2" d="M206.8,171.1h-26.1l-7-24l13.8,0v-7.3h-61.4l0,7.4l14.4,0l-7,23.9h-26.4v6.2h24.5l-9,30.5h10.6l9-30.5h29.3
		l8.9,30.5h11.1l-9.1-30.5h24.3V171.1L206.8,171.1L206.8,171.1z M144.2,171.1l7.1-24l11.6,0l6.8,24H144.2L144.2,171.1L144.2,171.1z"
		/>
</g>
</svg>
